<svg xmlns="http://www.w3.org/2000/svg" version="1.0" preserveAspectRatio="xMidYMid meet" viewBox="44 77 166.67 104.51">

<g transform="translate(0.000000,256.000000) scale(0.100000,-0.100000)" fill="#000000" stroke="none">
<path d="M1049 1769 c-7 -14 -9 -38 -4 -63 7 -41 7 -127 0 -134 -2 -2 -36 19 -77 46 -81 55 -170 102 -192 102 -32 0 -24 -74 13 -121 10 -13 21 -44 24 -68 3 -26 15 -54 30 -70 14 -14 30 -43 36 -63 7 -20 28 -52 48 -71 19 -19 40 -45 47 -58 6 -13 25 -33 41 -44 17 -10 42 -33 57 -50 l26 -31 -41 -54 c-23 -30 -97 -117 -165 -193 -118 -134 -141 -172 -84 -143 26 14 151 32 184 27 32 -4 78 29 120 89 28 41 49 60 62 60 19 -1 19 -1 4 -11 -28 -16 -21 -30 9 -18 26 10 27 9 10 -9 -17 -18 -17 -20 -1 -26 20 -8 46 22 40 47 -3 11 2 17 14 17 24 0 34 -16 15 -24 -29 -11 -17 -26 13 -16 24 9 25 8 10 -4 -23 -17 -23 -26 2 -26 10 0 24 10 31 21 9 18 8 24 -5 31 -20 11 -12 28 13 28 10 0 45 14 79 31 46 23 82 53 149 126 101 110 160 153 212 153 30 0 207 -26 316 -46 82 -15 -85 54 -222 92 -78 21 -91 29 -147 83 -103 98 -187 104 -267 21 l-37 -39 -35 57 c-80 130 -281 372 -308 372 -5 0 -13 -10 -20 -21z m87 -72 c33 -34 85 -101 116 -147 50 -73 57 -89 50 -113 l-8 -29 -32 46 c-18 24 -66 80 -107 124 -41 43 -79 91 -85 106 -12 33 -13 76 -1 76 5 0 35 -28 67 -63z m-206 -82 c130 -87 203 -151 213 -187 5 -17 7 -32 5 -33 -2 -2 -37 20 -79 48 -41 29 -115 74 -164 101 -89 51 -125 89 -125 133 0 20 3 22 28 12 15 -6 70 -39 122 -74z m365 -225 c-6 -10 -173 114 -207 153 -11 11 -18 35 -18 56 l1 36 115 -118 c63 -65 112 -122 109 -127z m-383 129 c163 -92 237 -141 243 -160 4 -11 5 -23 2 -25 -3 -3 -54 17 -113 44 -60 27 -119 53 -131 56 -32 10 -83 73 -83 101 0 14 2 25 4 25 2 0 37 -19 78 -41z m320 -120 c35 -29 87 -75 117 -103 37 -34 49 -42 38 -24 -22 35 -22 35 7 42 12 3 35 24 51 45 50 74 108 94 177 63 43 -19 143 -112 121 -112 -7 0 -24 -5 -40 -11 l-28 -11 23 -12 c22 -12 22 -12 -17 -34 -22 -13 -81 -67 -132 -122 -73 -80 -106 -107 -158 -133 -62 -30 -71 -32 -178 -32 -62 0 -108 -1 -103 -3 23 -8 7 -22 -42 -37 -74 -22 -77 -20 -33 27 l40 42 -45 -34 c-25 -19 -79 -61 -120 -95 -83 -66 -88 -75 65 102 39 45 88 102 109 128 21 26 42 42 45 37 3 -5 16 -14 29 -21 19 -10 28 -8 67 19 56 38 58 47 5 20 -46 -24 -63 -25 -79 -6 -9 11 -2 16 36 27 57 16 43 24 -18 10 -36 -8 -49 -7 -69 6 l-25 17 25 7 c45 13 113 10 130 -6 11 -10 8 3 -11 43 -27 58 -67 212 -55 212 3 0 33 -23 68 -51z m137 -8 c31 -52 31 -61 -4 -61 -37 0 -57 31 -49 78 4 23 10 39 14 37 5 -3 22 -27 39 -54z m-236 -63 c18 -7 36 -27 53 -59 l24 -49 -78 0 c-71 0 -81 2 -112 29 -19 16 -32 32 -28 36 4 4 46 0 94 -9 48 -9 89 -14 91 -12 2 2 -44 15 -104 30 -95 22 -112 30 -140 61 -59 63 -44 68 70 23 56 -22 115 -45 130 -50z m698 -44 c39 -9 69 -18 66 -20 -6 -7 -157 20 -157 28 0 11 12 10 91 -8z m-731 -394 c-14 -26 -78 -90 -90 -90 -16 0 -12 9 23 52 26 33 51 52 75 57 1 1 -2 -8 -8 -19z m-116 -9 c7 -10 -90 -91 -107 -91 -8 0 90 97 100 100 1 0 4 -4 7 -9z m23 -36 c-63 -58 -79 -58 -31 0 23 28 44 45 58 45 18 -1 13 -8 -27 -45z"/>
<path d="M1545 1410 c-19 -8 -19 -9 3 -9 13 -1 22 -4 20 -8 -2 -5 -10 -21 -18 -36 -12 -25 -12 -32 1 -55 23 -42 91 -43 104 -2 3 11 13 20 21 20 8 0 -11 23 -41 50 -59 53 -59 53 -90 40z m54 -66 c-12 -14 -10 -19 9 -34 18 -15 19 -19 6 -24 -21 -8 -20 -8 -38 10 -21 21 -20 61 2 73 24 13 39 -4 21 -25z"/>
<path d="M680 1440 c0 -5 25 -10 55 -10 30 0 55 5 55 10 0 6 -25 10 -55 10 -30 0 -55 -4 -55 -10z"/>
<path d="M440 1360 c0 -5 23 -10 51 -10 31 0 48 4 44 10 -3 6 -26 10 -51 10 -24 0 -44 -4 -44 -10z"/>
<path d="M580 1360 c0 -6 48 -10 125 -10 77 0 125 4 125 10 0 6 -48 10 -125 10 -77 0 -125 -4 -125 -10z"/>
<path d="M730 1240 c0 -5 9 -10 20 -10 11 0 20 5 20 10 0 6 -9 10 -20 10 -11 0 -20 -4 -20 -10z"/>
<path d="M820 1240 c0 -6 27 -10 60 -10 33 0 60 4 60 10 0 6 -27 10 -60 10 -33 0 -60 -4 -60 -10z"/>
<path d="M835 1130 c3 -5 10 -10 16 -10 5 0 9 5 9 10 0 6 -7 10 -16 10 -8 0 -12 -4 -9 -10z"/>
<path d="M910 1130 c0 -6 27 -10 60 -10 33 0 60 4 60 10 0 6 -27 10 -60 10 -33 0 -60 -4 -60 -10z"/>
<path d="M680 1070 c0 -5 9 -10 20 -10 11 0 20 5 20 10 0 6 -9 10 -20 10 -11 0 -20 -4 -20 -10z"/>
<path d="M770 1070 c0 -6 38 -10 95 -10 57 0 95 4 95 10 0 6 -38 10 -95 10 -57 0 -95 -4 -95 -10z"/>
</g>
</svg>